<?xml version="1.0" encoding="UTF-8"?>
<svg width="63px" height="113px" viewBox="0 0 63 113" version="1.1" xmlns="http://www.w3.org/2000/svg" xmlns:xlink="http://www.w3.org/1999/xlink">
    <title>编组 4</title>
    <g id="20200228" stroke="none" stroke-width="1" fill="none" fill-rule="evenodd">
        <g id="品牌标识" transform="translate(-838.000000, -2589.000000)">
            <g id="标识汇总" transform="translate(0.000000, 2161.000000)">
                <g transform="translate(780.000000, 335.000000)" id="编组">
                    <g transform="translate(58.000000, 93.000000)" id="编组-4">
                        <g transform="translate(0.016368, 0.077408)">
                            <path d="M8.60456,111.59872 L0.000720000001,94.13344 C7.14095449e-13,94.13152 7.14095449e-13,94.12928 0.000720000001,94.12736 L16.78152,60.06304 C18.10504,57.376 18.10504,54.22656 16.78152,51.53952 L0.000720000001,17.4752 C7.14095449e-13,17.47328 7.14095449e-13,17.47104 0.000720000001,17.46912 L8.60456,0.00384 C8.60712,-0.00128 8.61416,-0.00128 8.61704,0.00384 L32.56424,48.61568 C34.7956,53.1456 34.79592,58.45504 32.56424,62.98496 L8.61704,111.59872 C8.61416,111.60384 8.60712,111.60384 8.60456,111.59872" id="Fill-4" fill="#0076C5"></path>
                            <path d="M47.25208,23.649632 L38.64216,41.133792 L43.76824,51.539552 C45.09208,54.226592 45.09208,57.376032 43.76824,60.063072 L38.63576,70.481632 L38.64888,70.482592 L47.25208,87.952672 L59.55128,62.984992 C61.78232,58.455072 61.78232,53.145632 59.55128,48.615712 L47.25208,23.649632 Z" id="Fill-6" fill="#57CBE5"></path>
                        </g>
                    </g>
                </g>
            </g>
        </g>
    </g>
</svg>